<svg xmlns="http://www.w3.org/2000/svg" version="1.1" xmlns:xlink="http://www.w3.org/1999/xlink" xmlns:svgjs="http://svgjs.dev/svgjs" width="1500" height="1500" viewBox="0 0 1500 1500"><rect width="1500" height="1500" fill="#2c2c2c"></rect><g transform="matrix(0.6666666666666666,0,0,0.6666666666666666,250.00011562499986,187.66666666666674)"><svg viewBox="0 0 320 360" data-background-color="#2c2c2c" preserveAspectRatio="xMidYMid meet" height="1687" width="1500" xmlns="http://www.w3.org/2000/svg" xmlns:xlink="http://www.w3.org/1999/xlink"><g id="tight-bounds" transform="matrix(1,0,0,1,-0.0000369999999634274,0)"><svg viewBox="0 0 320 360" height="360" width="320"><g><svg></svg></g><g><svg viewBox="0 0 320 360" height="360" width="320"><g><path transform="translate(-29.57346,-9.38389) scale(3.79147,3.79147)" d="M50 13.6c19.1 0 34.8 14.8 36.3 33.5h5.9c-0.3-4.7-1.4-9.2-3.2-13.5-2.1-5-5.2-9.6-9.1-13.4-3.9-3.9-8.4-6.9-13.4-9.1-5.3-2.2-10.8-3.4-16.5-3.4-5.7 0-11.2 1.1-16.5 3.3-5 2.1-9.6 5.2-13.4 9.1-3.9 3.9-6.9 8.4-9.1 13.4-1.8 4.3-2.9 8.9-3.2 13.5h5.9c1.5-18.6 17.2-33.4 36.3-33.4zM50 86.4c-19.1 0-34.8-14.8-36.3-33.5h-5.9c0.3 4.7 1.4 9.2 3.2 13.5 2.1 5 5.2 9.6 9.1 13.4 3.9 3.9 8.4 6.9 13.4 9.1 5.2 2.2 10.7 3.3 16.5 3.3 5.8 0 11.2-1.1 16.5-3.3 5-2.1 9.6-5.2 13.4-9.1 3.9-3.9 6.9-8.4 9.1-13.4 1.8-4.3 2.9-8.9 3.2-13.5h-5.9c-1.5 18.7-17.2 33.5-36.3 33.5z" fill="#eab1fe" fill-rule="nonzero" stroke="none" stroke-width="1" stroke-linecap="butt" stroke-linejoin="miter" stroke-miterlimit="10" stroke-dasharray="" stroke-dashoffset="0" font-family="none" font-weight="none" font-size="none" text-anchor="none" style="mix-blend-mode: normal" data-fill-palette-color="tertiary"></path></g><g transform="matrix(1,0,0,1,67.00239865563518,90)"><svg viewBox="0 0 185.99520268872965 180" height="180" width="185.99520268872965"><g><svg viewBox="0 0 185.99520268872965 180" height="180" width="185.99520268872965"><g><svg viewBox="0 0 208 201.29551439376274" height="180" width="185.99520268872965"><g transform="matrix(1,0,0,1,0,111.69326562355896)"><svg viewBox="0 0 208 89.6022487702038" height="89.6022487702038" width="208"><g id="textblocktransform"><svg viewBox="0 0 208 89.6022487702038" height="89.6022487702038" width="208" id="textblock"><g><svg viewBox="0 0 208 89.6022487702038" height="89.6022487702038" width="208"><g transform="matrix(1,0,0,1,0,0)"><svg width="208" viewBox="3.8 -30.65 71.15 30.65" height="89.6022487702038" data-palette-color="#eab1fe"><path d="M19.45-15.8Q22.4-14.9 23.75-12.8 25.1-10.7 25.1-8.2L25.1-8.2Q25.1-4.7 22.85-2.35 20.6 0 15.15 0L15.15 0 3.8 0 3.8-30.65 13.8-30.65Q19.25-30.65 21.55-28.38 23.85-26.1 23.85-22.8L23.85-22.8Q23.85-17.6 19.45-15.8L19.45-15.8ZM10.1-28.35L10.1-16.8 13.25-16.8Q17.55-16.8 17.55-22.75L17.55-22.75Q17.55-25.6 16.43-26.98 15.3-28.35 13.25-28.35L13.25-28.35 10.1-28.35ZM14.35-2.3Q16.65-2.3 17.73-3.8 18.8-5.3 18.8-8.2L18.8-8.2Q18.8-10.85 17.65-12.7 16.5-14.55 14.35-14.55L14.35-14.55 10.1-14.55 10.1-2.3 14.35-2.3ZM46.1-24L49.65-24 41.6 0 34.65 0 26.65-24 32.9-24 39.5-3.1 46.1-24ZM69.3-15.8Q72.25-14.9 73.59-12.8 74.95-10.7 74.95-8.2L74.95-8.2Q74.95-4.7 72.7-2.35 70.45 0 65 0L65 0 53.65 0 53.65-30.65 63.65-30.65Q69.09-30.65 71.4-28.38 73.7-26.1 73.7-22.8L73.7-22.8Q73.7-17.6 69.3-15.8L69.3-15.8ZM59.95-28.35L59.95-16.8 63.1-16.8Q67.4-16.8 67.4-22.75L67.4-22.75Q67.4-25.6 66.27-26.98 65.15-28.35 63.1-28.35L63.1-28.35 59.95-28.35ZM64.2-2.3Q66.5-2.3 67.57-3.8 68.65-5.3 68.65-8.2L68.65-8.2Q68.65-10.85 67.5-12.7 66.34-14.55 64.2-14.55L64.2-14.55 59.95-14.55 59.95-2.3 64.2-2.3Z" opacity="1" transform="matrix(1,0,0,1,0,0)" fill="#eab1fe" class="wordmark-text-0" data-fill-palette-color="primary" id="text-0"></path></svg></g></svg></g></svg></g></svg></g><g transform="matrix(1,0,0,1,33.300799999999995,0)"><svg viewBox="0 0 141.3984 98.61814707401574" height="98.61814707401574" width="141.3984"><g><svg xmlns="http://www.w3.org/2000/svg" xmlns:xlink="http://www.w3.org/1999/xlink" version="1.1" x="0" y="0" viewBox="1.012 8.212 47.625 33.215999999999994" enable-background="new 0 0 50 50" xml:space="preserve" height="98.61814707401574" width="141.3984" class="icon-icon-0" data-fill-palette-color="accent" id="icon-0"><g fill="#fff6ef" data-fill-palette-color="accent"><polygon fill="#fff6ef" points="19.937,10.508 17.653,8.212 1.012,24.792 17.647,41.428 19.94,39.135 5.603,24.794  " data-fill-palette-color="accent"></polygon><polygon fill="#fff6ef" points="29.714,10.508 44.046,24.794 29.711,39.135 32.004,41.428 48.637,24.792 32.001,8.212  " data-fill-palette-color="accent"></polygon></g></svg></g></svg></g><g></g></svg></g></svg></g></svg></g></svg></g><defs></defs></svg><rect width="320" height="360" fill="none" stroke="none" visibility="hidden"></rect></g></svg></g></svg>